HIERARCHY
ROOT Hips
{
	OFFSET -3.958830 18.904000 13.208200
	CHANNELS 6 Xposition Yposition Zposition Zrotation Yrotation Xrotation 
	JOINT LHipJoint
	{
		OFFSET 0.000000 0.000000 0.000000
		CHANNELS 3 Zrotation Yrotation Xrotation
		JOINT LeftUpLeg
		{
			OFFSET 1.800000 -1.400000 0.085000
			CHANNELS 3 Zrotation Yrotation Xrotation
			JOINT LeftLeg
			{
				OFFSET 2.215000 -6.000000 0.000000
				CHANNELS 3 Zrotation Yrotation Xrotation
				JOINT LeftFoot
				{
					OFFSET 2.500000 -6.900000 0.000000
					CHANNELS 3 Zrotation Yrotation Xrotation
					JOINT LeftToeBase
					{
						OFFSET 0.200000 -0.500000 1.950000
						CHANNELS 3 Zrotation Yrotation Xrotation
						End Site
						{
							OFFSET 0.000000 0.000000 0.000000
						}
					}
				}
			}
		}
	}
	JOINT RHipJoint
	{
		OFFSET 0.000000 0.000000 0.000000
		CHANNELS 3 Zrotation Yrotation Xrotation
		JOINT RightUpLeg
		{
			OFFSET -1.800000 -1.400000 0.085000
			CHANNELS 3 Zrotation Yrotation Xrotation
			JOINT RightLeg
			{
				OFFSET -2.215000 -6.000000 0.000000
				CHANNELS 3 Zrotation Yrotation Xrotation
				JOINT RightFoot
				{
					OFFSET -2.500000 -6.900000 0.000000
					CHANNELS 3 Zrotation Yrotation Xrotation
					JOINT RightToeBase
					{
						OFFSET -0.200000 -0.500000 1.950000
						CHANNELS 3 Zrotation Yrotation Xrotation
						End Site
						{
							OFFSET 0.000000 0.000000 0.000000
						}
					}
				}
			}
		}
	}
	JOINT LowerBack
	{
		OFFSET 0.000000 0.000000 0.000000
		CHANNELS 3 Zrotation Yrotation Xrotation
		JOINT Spine
		{
			OFFSET -0.087000 1.940000 -0.288900
			CHANNELS 3 Zrotation Yrotation Xrotation
			JOINT Spine1
			{
				OFFSET 0.000000 1.950000 0.060000
				CHANNELS 3 Zrotation Yrotation Xrotation
				JOINT Neck
				{
					OFFSET 0.000000 0.000000 0.000000
					CHANNELS 3 Zrotation Yrotation Xrotation
					JOINT Neck1
					{
						OFFSET 0.000000 1.600000 0.340000
						CHANNELS 3 Zrotation Yrotation Xrotation
						JOINT Head
						{
							OFFSET 0.000000 1.667000 -0.240000
							CHANNELS 3 Zrotation Yrotation Xrotation
							End Site
							{
								OFFSET 0.000000 0.000000 0.000000
							}
						}
					}
				}
				JOINT LeftShoulder
				{
					OFFSET 0.000000 0.000000 0.000000
					CHANNELS 3 Zrotation Yrotation Xrotation
					JOINT LeftArm
					{
						OFFSET 2.700000 1.550000 -0.730000
						CHANNELS 3 Zrotation Yrotation Xrotation
						JOINT LeftForeArm
						{
							OFFSET 5.450000 0.000000 0.000000
							CHANNELS 3 Zrotation Yrotation Xrotation
							JOINT LeftHand
							{
								OFFSET 3.450000 0.000000 0.000000
								CHANNELS 3 Zrotation Yrotation Xrotation
								JOINT LeftHandIndex1
								{
									OFFSET 0.750000 0.000000 0.000000
									CHANNELS 3 Zrotation Yrotation Xrotation
									End Site
									{
										OFFSET 0.000000 0.000000 0.000000
									}
								}
							}
						}
					}
				}
				JOINT RightShoulder
				{
					OFFSET 0.000000 0.000000 0.000000
					CHANNELS 3 Zrotation Yrotation Xrotation
					JOINT RightArm
					{
						OFFSET -2.700000 1.550000 -0.730000
						CHANNELS 3 Zrotation Yrotation Xrotation
						JOINT RightForeArm
						{
							OFFSET -5.450000 0.000000 0.000000
							CHANNELS 3 Zrotation Yrotation Xrotation
							JOINT RightHand
							{
								OFFSET -3.450000 0.000000 0.000000
								CHANNELS 3 Zrotation Yrotation Xrotation
								JOINT RightHandIndex1
								{
									OFFSET -0.750000 0.000000 0.000000
									CHANNELS 3 Zrotation Yrotation Xrotation
									End Site
									{
										OFFSET 0.000000 0.000000 0.000000
									}
								}
							}
						}
					}
				}
			}
		}
	}
}
MOTION
Frames: 6
Frame Time: 0.016667
-0.848320 17.012230 -0.856250 -1.210626 -55.869721 -2.935792 -15.254164 15.351444 3.194335 6.867788 -2.083110 -10.685814 -5.158519 9.510650 30.410101 1.004234 5.498684 2.591300 0.414720 -0.009940 0.620110 17.866562 -9.494505 3.866207 2.546096 6.329340 -29.772385 6.377443 -4.052152 19.209667 -0.227952 -1.485815 3.962071 -0.551360 -0.523450 0.125690 -1.218611 -6.621566 -8.435860 -4.053337 -5.815306 23.733697 11.162170 1.773942 -30.162206 7.631588 -5.469487 -13.285260 -24.472892 23.339866 54.868210 6.977080 15.840730 11.627050 -3.913447 29.662759 5.830151 -47.741374 43.088916 -8.920419 -88.362200 -27.164299 20.754995 -2.562104 3.681326 0.765630 -0.537310 0.551190 0.138950 -3.947652 -25.123742 3.438104 68.089086 -26.926949 -20.189845 3.471204 19.162073 0.582375 3.071819 -0.604253 0.284260 -0.459610 -0.547830 -0.149550 
-0.933230 17.072810 -0.836100 -1.850602 -57.113571 -2.470858 -15.314650 15.451845 3.063393 5.480235 -1.552963 -9.453495 -2.336303 8.274468 29.630597 0.908439 5.066001 2.715385 0.471080 0.048310 0.722050 17.798246 -9.610430 3.801651 1.709127 5.739846 -27.296142 9.487771 -4.289844 15.475206 -0.273427 -1.428055 3.963025 -0.520830 -0.611640 0.136820 -0.798840 -6.548047 -8.446728 -6.387684 -4.396739 20.191816 15.667137 3.998452 -27.658451 6.919902 -4.241518 -14.109203 -22.563956 22.870602 61.758370 5.669600 16.881510 9.757750 -1.904650 28.295820 7.435441 -46.649279 44.480913 -7.524584 -91.051045 -21.155854 16.563927 -2.508799 3.659987 0.816850 -0.569870 0.621960 0.109480 -4.648721 -24.219328 3.845401 67.224795 -26.300701 -19.831090 1.556135 19.485155 0.500020 3.059444 -0.645059 0.296910 -0.469200 -0.579070 -0.194540 
-1.010580 17.105200 -0.806450 -2.972179 -57.643662 -1.313938 -15.369379 15.463198 2.965069 4.275638 -1.255083 -8.682755 0.291436 7.177544 29.373909 0.836279 4.797955 2.799909 0.494360 0.071850 0.764600 17.749359 -9.673691 3.799231 1.288523 5.371048 -25.560653 11.767589 -4.395429 12.684051 -0.307067 -1.482119 3.935707 -0.498620 -0.637560 0.150340 -0.551999 -6.378708 -8.450768 -7.178958 -3.724487 16.881042 18.943221 5.030539 -25.426141 6.044389 -3.610832 -14.653304 -21.325824 22.328668 65.568792 5.218180 17.238360 9.338130 -0.156176 27.060536 8.759937 -45.412737 45.152211 -6.127896 -93.556057 -16.503922 13.354889 -2.483611 3.666707 0.837430 -0.565940 0.646670 0.097260 -4.805746 -23.495936 3.880063 66.590586 -25.522934 -19.439197 -1.001872 19.653783 0.296308 3.046956 -0.697818 0.294060 -0.471660 -0.586450 -0.218570 
-1.063350 17.132320 -0.781200 -4.638233 -58.217868 0.034783 -15.414232 15.488452 2.918332 3.641352 -1.029500 -7.880131 1.775210 6.651998 29.601495 0.817220 4.710384 2.805003 0.570610 0.157860 0.844100 17.709930 -9.664058 3.821453 1.338195 5.244685 -24.185101 13.424801 -4.473722 11.111571 -0.376538 -1.546731 3.889778 -0.452540 -0.711510 0.154150 -0.373185 -6.356059 -8.494298 -6.398234 -3.591278 14.705741 20.381494 5.674703 -24.028196 5.704728 -3.173783 -15.547659 -21.573696 22.913506 69.787574 5.079070 17.700880 8.228750 0.948810 26.037902 9.678709 -44.240784 45.469855 -4.802804 -95.489060 -13.967270 11.840979 -2.412623 3.688650 0.873390 -0.605130 0.705790 0.092570 -5.213991 -22.719603 4.113344 66.787916 -24.580600 -19.154763 -3.304434 20.396655 0.113994 3.045850 -0.746701 0.316340 -0.482500 -0.629430 -0.241060 
-1.111410 17.146330 -0.757230 -5.265389 -57.800569 0.315778 -15.440103 15.471481 2.914736 2.735774 -0.927714 -7.136025 2.982366 6.221190 30.156626 0.776783 4.720852 2.771706 0.607310 0.196640 0.898220 17.682877 -9.704699 3.807434 0.708935 4.970310 -23.099938 14.701823 -4.612219 10.123583 -0.425398 -1.649122 3.832374 -0.420410 -0.761810 0.151170 -0.246629 -6.267059 -8.523304 -6.072998 -4.011340 12.908467 21.126553 5.445897 -22.930611 5.723625 -2.685617 -16.207730 -21.539867 23.390122 73.900816 4.153160 18.643060 7.489770 0.820010 24.764146 10.230771 -43.120514 45.793061 -3.927264 -97.437688 -12.150098 10.472707 -2.398665 3.677484 0.911530 -0.625280 0.737490 0.063110 -5.174743 -21.850850 4.310306 66.929436 -23.483035 -18.803756 -4.513504 20.965044 -0.028992 3.023499 -0.751684 0.314420 -0.476300 -0.626920 -0.276080 
-1.134220 17.173800 -0.748440 -5.482372 -57.284268 -0.045785 -15.445438 15.497732 2.953322 1.840432 -0.865477 -6.229700 3.974186 5.733333 30.043827 0.731326 4.647511 2.766274 0.679680 0.265530 0.985800 17.666700 -9.743858 3.779053 0.204012 4.795209 -22.379163 15.286966 -4.843574 10.411354 -0.493371 -1.728103 3.771793 -0.378810 -0.839920 0.153700 -0.161849 -6.314919 -8.548465 -5.668703 -4.869168 12.442712 20.713804 5.328408 -23.007618 6.180014 -2.203972 -16.854216 -21.884816 24.430493 78.541375 3.140120 19.875600 5.478790 -0.237123 23.857448 10.529453 -41.382869 46.102571 -2.321829 -101.594150 -12.837820 12.494545 -2.367838 3.711914 0.971490 -0.673170 0.797140 0.042130 -5.052321 -21.101693 4.409629 66.874703 -22.040865 -17.903037 -5.189130 20.462634 -0.096774 3.027728 -0.730423 0.325210 -0.473380 -0.647790 -0.314900 
